<svg width="24px" height="24px" viewBox="0 0 24 24" version="1.1" xmlns="http://www.w3.org/2000/svg" xmlns:xlink="http://www.w3.org/1999/xlink">
    <title>mail</title>
    <g id="Page-1" stroke="none" stroke-width="1" fill="none" fill-rule="evenodd">
        <g id="mail" fill="#587087" fill-rule="nonzero">
            <path d="M15.61,12 C15.61,13.99 13.99,15.61 12,15.61 C10.01,15.61 8.39,13.99 8.39,12 C8.39,10.01 10.01,8.39 12,8.39 C13.99,8.39 15.61,10.01 15.61,12 M12,0 C5.383,0 0,5.383 0,12 C0,18.617 5.383,24 12,24 C14.424,24 16.761,23.278 18.76,21.913 L18.794,21.889 L17.177,20.01 L17.15,20.027 C15.6146078,21.016215 13.8264647,21.5415472 12,21.54 C6.74,21.54 2.46,17.26 2.46,12 C2.46,6.74 6.74,2.46 12,2.46 C17.26,2.46 21.54,6.74 21.54,12 C21.5385967,12.6894173 21.4631643,13.3766906 21.315,14.05 C21.014,15.289 20.146,15.668 19.495,15.618 C18.841,15.565 18.075,15.098 18.069,13.957 L18.069,12 C18.0656935,8.64939246 15.350607,5.93385852 12,5.93 C8.64900252,5.93330745 5.93330745,8.64900252 5.93,12 C5.93330745,15.3509975 8.64900252,18.0666925 12,18.07 C13.6157366,18.0739213 15.1652283,17.4281797 16.3,16.278 C17.021803,17.4114501 18.2762742,18.0934743 19.62,18.083 C20.494,18.083 21.36,17.791 22.057,17.262 C22.776,16.715 23.313,15.926 23.61,14.977 C23.657,14.823 23.745,14.473 23.745,14.47 L23.747,14.457 C23.922,13.697 24,12.937 24,12 C24,5.383 18.617,-7.10542736e-15 12,-7.10542736e-15" id="Shape"></path>
        </g>
    </g>
</svg>