<?xml version="1.0" encoding="utf-8"?>
<!-- Generator: Adobe Illustrator 22.1.0, SVG Export Plug-In . SVG Version: 6.00 Build 0)  -->
<svg version="1.1" id="Layer_1" xmlns="http://www.w3.org/2000/svg" xmlns:xlink="http://www.w3.org/1999/xlink" x="0px" y="0px"
	 viewBox="0 0 119.1 119.1" style="enable-background:new 0 0 119.1 119.1;" xml:space="preserve">
<style type="text/css">
	.st0{fill:#D8D8D8;}
	.st1{fill:#AAAAAA;}
	.st2{fill:#FFFFFF;}
	.st3{fill:url(#SVGID_1_);}
	.st4{fill:url(#SVGID_2_);}
	.st5{fill:url(#SVGID_3_);}
	.st6{fill:url(#SVGID_4_);}
	.st7{fill:url(#SVGID_5_);}
	.st8{fill:url(#SVGID_6_);}
	.st9{fill:url(#SVGID_7_);}
	.st10{fill:url(#SVGID_8_);}
	.st11{fill:url(#SVGID_9_);}
	.st12{fill:url(#SVGID_10_);}
	.st13{fill:url(#SVGID_11_);}
	.st14{fill:url(#SVGID_12_);}
	.st15{fill:url(#SVGID_13_);}
	.st16{fill:url(#SVGID_14_);}
	.st17{fill:url(#SVGID_15_);}
	.st18{fill:url(#SVGID_16_);}
	.st19{fill:#F89200;}
	.st20{fill:#00BC9B;}
	.st21{fill:#F8BF00;}
	.st22{fill:#5CD551;}
	.st23{fill:#FF4C9F;}
	.st24{fill:#00BEF2;}
	.st25{fill:#CE0003;}
	.st26{fill:#3273E2;}
	.st27{fill:#A680D0;}
</style>
<path class="st0" d="M59.7,2.1C28,2.1,2.3,27.8,2.3,59.5s25.7,57.4,57.4,57.4s57.4-25.7,57.4-57.4C117,27.8,91.3,2.1,59.7,2.1z
	 M59.7,111.4c-28.7,0-52-23.3-52-52s23.3-52,52-52s52,23.3,52,52C111.6,88.2,88.4,111.4,59.7,111.4z"/>
<path class="st1" d="M59.7,6.5c14.6,0,27.8,5.9,37.4,15.5s15.5,22.8,15.5,37.4s-5.9,27.8-15.5,37.4s-22.8,15.6-37.4,15.6
	s-27.8-5.9-37.4-15.5S6.7,74.1,6.7,59.5s5.9-27.8,15.5-37.4S45,6.5,59.7,6.5z"/>
<path class="st2" d="M95.7,23.4c-9.2-9.3-21.9-15-36-15s-26.8,5.7-36.1,14.9c-9.3,9.3-15,22.1-15,36.2s5.7,26.8,15,36
	c9.2,9.2,22,14.9,36.1,14.9s26.8-5.7,36.1-14.9c9.2-9.2,14.9-22,14.9-36.1S105,32.6,95.7,23.4z"/>
<linearGradient id="SVGID_1_" gradientUnits="userSpaceOnUse" x1="35.9964" y1="551.5333" x2="46.1254" y2="569.0763" gradientTransform="matrix(1 0 0 1 0 -480)">
	<stop  offset="0" style="stop-color:#F89200"/>
	<stop  offset="1" style="stop-color:#00BEF2"/>
</linearGradient>
<path class="st3" d="M34.7,71.3l1.7-1l10.9,18.9l-1.7,1L34.7,71.3z"/>
<linearGradient id="SVGID_2_" gradientUnits="userSpaceOnUse" x1="31.3942" y1="535.1519" x2="31.3942" y2="515.5969" gradientTransform="matrix(1 0 0 1 0 -480)">
	<stop  offset="0" style="stop-color:#F89200"/>
	<stop  offset="1" style="stop-color:#CC1F25"/>
</linearGradient>
<path class="st4" d="M30.4,35.6h1.9v19.6h-1.9V35.6z"/>
<linearGradient id="SVGID_3_" gradientUnits="userSpaceOnUse" x1="37.9782" y1="536.9919" x2="49.8792" y2="525.0899" gradientTransform="matrix(1 0 0 1 0 -480)">
	<stop  offset="0" style="stop-color:#F89200"/>
	<stop  offset="1" style="stop-color:#AAAAAA"/>
</linearGradient>
<path class="st5" d="M38,58.3l-1.4-1.4l13.2-13.1l1.3,1.3L38,58.3z"/>
<linearGradient id="SVGID_4_" gradientUnits="userSpaceOnUse" x1="39.8442" y1="543.5759" x2="64.8892" y2="543.5759" gradientTransform="matrix(1 0 0 1 0 -480)">
	<stop  offset="0" style="stop-color:#F89200"/>
	<stop  offset="1" style="stop-color:#3273E2"/>
</linearGradient>
<path class="st6" d="M39.8,62.6h25v1.9h-25V62.6z"/>
<linearGradient id="SVGID_5_" gradientUnits="userSpaceOnUse" x1="39.3941" y1="548.1659" x2="66.9721" y2="564.0879" gradientTransform="matrix(1 0 0 1 0 -480)">
	<stop  offset="0" style="stop-color:#F89200"/>
	<stop  offset="1" style="stop-color:#A680D0"/>
</linearGradient>
<path class="st7" d="M38.2,68.6l0.9-1.7l29,16.7l-1,1.7L38.2,68.6z"/>
<linearGradient id="SVGID_6_" gradientUnits="userSpaceOnUse" x1="54.062" y1="572.0472" x2="66.884" y2="567.2832" gradientTransform="matrix(1 0 0 1 0 -480)">
	<stop  offset="0" style="stop-color:#00BEF2"/>
	<stop  offset="1" style="stop-color:#A680D0"/>
</linearGradient>
<path class="st8" d="M53.8,93.1l-0.7-1.8l14-5.1l0.6,1.8L53.8,93.1z"/>
<linearGradient id="SVGID_7_" gradientUnits="userSpaceOnUse" x1="88.0602" y1="562.6476" x2="73.6472" y2="565.4006" gradientTransform="matrix(1 0 0 1 0 -480)">
	<stop  offset="0" style="stop-color:#FF4C9F"/>
	<stop  offset="1" style="stop-color:#A680D0"/>
</linearGradient>
<path class="st9" d="M88.2,81.6l0.3,1.9l-15.1,2.9l-0.3-1.9L88.2,81.6z"/>
<linearGradient id="SVGID_8_" gradientUnits="userSpaceOnUse" x1="52.0122" y1="504.5785" x2="34.8992" y2="511.1645" gradientTransform="matrix(1 0 0 1 0 -480)">
	<stop  offset="0" style="stop-color:#5CD551"/>
	<stop  offset="1" style="stop-color:#CE0003"/>
</linearGradient>
<path class="st10" d="M52.2,23.4l0.7,1.8l-18.3,7.1l-0.7-1.8L52.2,23.4z"/>
<linearGradient id="SVGID_9_" gradientUnits="userSpaceOnUse" x1="54.3993" y1="515.9876" x2="55.1893" y2="506.4636" gradientTransform="matrix(1 0 0 1 0 -480)">
	<stop  offset="0" style="stop-color:#AAAAAA"/>
	<stop  offset="0.184" style="stop-color:#A2AEA1"/>
	<stop  offset="0.484" style="stop-color:#8DBA89"/>
	<stop  offset="0.861" style="stop-color:#6ACD61"/>
	<stop  offset="1" style="stop-color:#5CD551"/>
</linearGradient>
<path class="st11" d="M55.3,36.2L53.4,36l0.8-9.8l1.9,0.2L55.3,36.2z"/>
<linearGradient id="SVGID_10_" gradientUnits="userSpaceOnUse" x1="86.457" y1="517.0157" x2="58.9139" y2="504.8008" gradientTransform="matrix(1 0 0 1 0 -480)">
	<stop  offset="0" style="stop-color:#F8BF00"/>
	<stop  offset="1" style="stop-color:#5CD551"/>
</linearGradient>
<path class="st12" d="M87.4,36.4l-0.7,1.7L57.9,25.4l0.7-1.8L87.4,36.4z"/>
<linearGradient id="SVGID_11_" gradientUnits="userSpaceOnUse" x1="86.6269" y1="519.5269" x2="58.8839" y2="520.8239" gradientTransform="matrix(1 0 0 1 0 -480)">
	<stop  offset="0" style="stop-color:#F8BF00"/>
	<stop  offset="0.6" style="stop-color:#B6AD91"/>
	<stop  offset="1" style="stop-color:#AAAAAA"/>
</linearGradient>
<path class="st13" d="M86.6,38.5l0.1,2l-27.9,1.3l-0.1-2L86.6,38.5z"/>
<linearGradient id="SVGID_12_" gradientUnits="userSpaceOnUse" x1="68.2633" y1="546.805" x2="69.9853" y2="562.974" gradientTransform="matrix(1 0 0 1 0 -480)">
	<stop  offset="0" style="stop-color:#3273E2"/>
	<stop  offset="0.99" style="stop-color:#A680D0"/>
</linearGradient>
<path class="st14" d="M67.2,66.7l2-0.2L70.9,83L69,83.2L67.2,66.7z"/>
<linearGradient id="SVGID_13_" gradientUnits="userSpaceOnUse" x1="56.9105" y1="525.8616" x2="65.8825" y2="540.2976" gradientTransform="matrix(1 0 0 1 0 -480)">
	<stop  offset="0" style="stop-color:#AAAAAA"/>
	<stop  offset="1" style="stop-color:#3273E2"/>
</linearGradient>
<path class="st15" d="M55.6,45.7l1.7-1.1l9.8,15.8l-1.7,1.1L55.6,45.7z"/>
<linearGradient id="SVGID_14_" gradientUnits="userSpaceOnUse" x1="90.7573" y1="524.3603" x2="88.8323" y2="537.0843" gradientTransform="matrix(1 0 0 1 0 -480)">
	<stop  offset="0" style="stop-color:#F8BF00"/>
	<stop  offset="1" style="stop-color:#00BC9B"/>
</linearGradient>
<path class="st16" d="M89.8,43.9l1.9,0.3l-2,13.3l-1.9-0.3L89.8,43.9z"/>
<linearGradient id="SVGID_15_" gradientUnits="userSpaceOnUse" x1="83.0222" y1="542.5345" x2="71.1892" y2="543.3624" gradientTransform="matrix(1 0 0 1 0 -480)">
	<stop  offset="0" style="stop-color:#00BC9B"/>
	<stop  offset="0.99" style="stop-color:#3273E2"/>
</linearGradient>
<path class="st17" d="M83,61.5l0.2,2l-12.1,0.8l-0.2-1.9L83,61.5z"/>
<linearGradient id="SVGID_16_" gradientUnits="userSpaceOnUse" x1="88.8817" y1="547.3033" x2="90.8087" y2="558.6603" gradientTransform="matrix(1 0 0 1 0 -480)">
	<stop  offset="0" style="stop-color:#00BC9B"/>
	<stop  offset="1" style="stop-color:#FF4C9F"/>
</linearGradient>
<path class="st18" d="M87.8,67.1l1.9-0.3l2.1,12l-1.9,0.3L87.8,67.1z"/>
<path class="st19" d="M32.2,54.8c4.8,0.5,8.4,4.7,7.9,9.6c-0.5,4.8-4.7,8.4-9.6,7.9c-4.8-0.5-8.4-4.7-7.9-9.6
	C23.1,57.9,27.4,54.3,32.2,54.8z"/>
<path class="st20" d="M88.5,56.9c2.9,0.3,5,2.8,4.8,5.7c-0.3,2.9-2.8,5-5.7,4.8c-2.9-0.3-5-2.8-4.8-5.7S85.6,56.7,88.5,56.9z"/>
<path class="st21" d="M92,34c2.9,0.3,5,2.8,4.8,5.7c-0.3,2.9-2.8,5-5.7,4.8c-2.9-0.3-5-2.8-4.8-5.7S89.1,33.7,92,34z"/>
<path class="st22" d="M55.7,19.7c1.9,0.2,3.4,1.9,3.2,3.8s-1.9,3.4-3.8,3.2c-1.9-0.2-3.4-1.9-3.2-3.8S53.8,19.6,55.7,19.7z"/>
<path class="st23" d="M91.6,78.5c1.9,0.2,3.4,1.9,3.2,3.8c-0.2,1.9-1.9,3.4-3.8,3.2c-1.9-0.2-3.4-1.9-3.2-3.8
	C88,79.7,89.7,78.3,91.6,78.5z"/>
<path class="st24" d="M43.7,94.8c-0.5-2.9,1.5-5.6,4.3-6.1c2.9-0.5,5.6,1.5,6.1,4.3c0.5,2.9-1.5,5.6-4.3,6.1
	C46.9,99.6,44.2,97.7,43.7,94.8z"/>
<path class="st25" d="M34.7,33.7c-0.7,1.8-2.7,2.7-4.5,2.1c-1.9-0.7-2.8-2.7-2.1-4.5c0.7-1.8,2.7-2.7,4.5-2.1
	C34.4,29.9,35.3,31.9,34.7,33.7z"/>
<path class="st1" d="M56.1,45.8c-2.6,1.2-5.8,0-7-2.6s0-5.8,2.6-7s5.8,0,7,2.6C59.9,41.5,58.7,44.6,56.1,45.8z"/>
<path class="st26" d="M66.7,66.8c-1.8-0.7-2.7-2.7-2.1-4.5c0.7-1.8,2.7-2.7,4.5-2.1c1.8,0.7,2.7,2.7,2.1,4.5
	C70.5,66.6,68.5,67.5,66.7,66.8z"/>
<path class="st27" d="M67.6,88.2c-1.2-1.5-1-3.7,0.5-4.9c1.5-1.2,3.7-1,4.9,0.5c1.2,1.5,1,3.7-0.5,4.9C71,89.9,68.8,89.7,67.6,88.2z
	"/>
</svg>
