<?xml version="1.0" encoding="UTF-8"?>
<svg width="30px" height="30px" viewBox="0 0 30 30" version="1.1" xmlns="http://www.w3.org/2000/svg" xmlns:xlink="http://www.w3.org/1999/xlink">
    <!-- Generator: Sketch 49.3 (51167) - http://www.bohemiancoding.com/sketch -->
    <title>twitter</title>
    <desc>Created with Sketch.</desc>
    <defs></defs>
    <g id="Page-1" stroke="none" stroke-width="1" fill="none" fill-rule="evenodd">
        <g id="twitter" fill="#587087" fill-rule="nonzero">
            <path d="M15,0 C23.2846875,0 30,6.7153125 30,15 C30,23.28375 23.2846875,30 15,30 C6.7153125,30 0,23.28375 0,15 C0,6.7153125 6.7153125,0 15,0 Z M17.086875,8.330625 C15.59625,8.8734375 14.6540625,10.2721875 14.7609375,11.803125 L14.7965625,12.39375 L14.2003125,12.3215625 C12.03,12.0440625 10.1334375,11.10375 8.5228125,9.5240625 L7.7353125,8.7403125 L7.53375,9.31875 C7.104375,10.60875 7.3790625,11.971875 8.2734375,12.88875 C8.750625,13.395 8.6428125,13.4671875 7.820625,13.16625 C7.5346875,13.0696875 7.2834375,12.9975 7.26,13.0340625 C7.1765625,13.1184375 7.4625,14.2153125 7.689375,14.6503125 C7.9996875,15.2540625 8.6315625,15.84375 9.3234375,16.194375 L9.9084375,16.471875 L9.215625,16.4821875 C8.548125,16.4821875 8.52375,16.494375 8.5959375,16.7484375 C8.8340625,17.5321875 9.77625,18.3646875 10.82625,18.7265625 L11.5659375,18.9796875 L10.921875,19.3659375 C9.9675,19.921875 8.84625,20.235 7.725,20.2575 C7.1878125,20.2696875 6.74625,20.3175 6.74625,20.3540625 C6.74625,20.4740625 8.2021875,21.1490625 9.0478125,21.4153125 C11.5884375,22.1990625 14.60625,21.860625 16.8721875,20.5228125 C18.4828125,19.5703125 20.0925,17.6765625 20.844375,15.8428125 C21.2503125,14.866875 21.6553125,13.081875 21.6553125,12.2259375 C21.6553125,11.6709375 21.6909375,11.59875 22.3584375,10.9359375 C22.7521875,10.5496875 23.1215625,10.1278125 23.19375,10.0078125 C23.31375,9.778125 23.300625,9.778125 22.693125,9.9834375 C21.6796875,10.3453125 21.53625,10.2975 22.0378125,9.7546875 C22.4071875,9.3684375 22.84875,8.6690625 22.84875,8.4646875 C22.84875,8.4290625 22.6696875,8.4890625 22.4671875,8.596875 C22.2525,8.7178125 21.7753125,8.89875 21.4171875,9.0065625 L20.773125,9.211875 L20.1890625,8.8125 C19.8665625,8.5959375 19.4146875,8.3540625 19.175625,8.281875 C18.56625,8.113125 17.63625,8.1375 17.086875,8.330625 Z" id="Shape"></path>
        </g>
    </g>
</svg>